<?xml version="1.0"?>
<svg xmlns="http://www.w3.org/2000/svg" xmlns:xlink="http://www.w3.org/1999/xlink" version="1.1" id="Layer_1" x="0px" y="0px" viewBox="0 0 512 512" style="enable-background:new 0 0 512 512;" xml:space="preserve" width="512px" height="512px" class=""><g><g>
	<g>
		<path d="M371.048,117.043c0-3.797-3.52-6.761-6.298-6.761c-0.648,0-1.297,0.092-1.76,0.463l-23.526,15.282    c-2.13,1.39-2.871,3.612-2.871,5.187c0,1.575,0.741,3.798,2.871,5.188l23.526,15.282c0.463,0.37,1.111,0.463,1.76,0.463    c2.778,0,6.298-2.964,6.298-6.762c0-1.574-0.648-2.964-1.667-3.612l-16.302-10.559l16.302-10.559    C370.399,120.007,371.048,118.618,371.048,117.043z" data-original="#000000" class="active-path" data-old_color="#000000" fill="#FFFFFF"/>
		<path d="M417.638,85.367c-1.667,0-3.149,0.74-3.89,2.315l-32.51,66.779c-0.278,0.556-0.464,1.204-0.464,1.76    c0,2.315,2.038,4.909,5.188,4.909c1.76,0,3.52-0.927,4.168-2.315l32.603-66.78c0.277-0.556,0.37-1.204,0.37-1.76    C423.102,87.312,420.231,85.367,417.638,85.367z" data-original="#000000" class="active-path" data-old_color="#000000" fill="#FFFFFF"/>
		<path d="M464.414,126.027l-23.525-15.282c-0.463-0.371-1.111-0.463-1.76-0.463c-2.779,0-6.299,2.964-6.299,6.761    c0,1.575,0.648,2.964,1.668,3.612l16.301,10.559l-16.301,10.559c-1.02,0.648-1.668,2.038-1.668,3.612    c0,3.798,3.52,6.762,6.299,6.762c0.648,0,1.297-0.093,1.76-0.463l23.525-15.282c2.131-1.39,2.871-3.612,2.871-5.188    C467.285,129.64,466.545,127.417,464.414,126.027z" data-original="#000000" class="active-path" data-old_color="#000000" fill="#FFFFFF"/>
		<path d="M475.95,37.29H314.463C306.12,15.507,284.992,0,260.309,0H151.997c-31.96,0-57.962,26.002-57.962,57.962v65.814    c-6.46,5.567-9.467,14.276-7.875,23.04l4.257,23.432c1.53,8.044,5.803,12.18,9.118,14.232c3.706,2.294,7.819,3.052,11.595,3.069    l0.001,4.164c0,21.127,12.325,44.41,33.815,63.88c4.046,3.665,8.253,7.044,12.541,10.1v12.56c0,3.828-2.732,7.113-6.496,7.813    c-0.174,0.032-0.348,0.071-0.519,0.115c-0.131,0.034-13.006,3.39-29.835,8.163H65.639c-6.184,0-12.147,2.596-16.362,7.121    c-4.214,4.525-6.379,10.659-5.939,16.827l0.151,2.12C18.888,332.746,3.413,354.862,1.938,380c-0.006,0.105-0.01,0.21-0.012,0.315    l-1.71,103.241c-0.091,7.57,2.789,14.706,8.109,20.091C13.647,509.034,20.747,512,28.319,512h355.669    c7.571,0,14.671-2.966,19.992-8.352s8.201-12.521,8.109-20.125l-1.709-103.208c-0.002-0.105-0.006-0.21-0.012-0.315    c-1.517-25.863-17.854-48.529-43.703-60.631c-0.476-0.223-0.971-0.45-1.483-0.681l0.028-0.395    c0.439-6.168-1.726-12.302-5.939-16.827c-4.215-4.525-10.179-7.121-16.362-7.121H291.67c-16.828-4.773-29.705-8.129-29.835-8.163    c-0.172-0.044-0.345-0.083-0.519-0.115c-3.765-0.699-6.496-3.984-6.496-7.813v-12.56c4.288-3.056,8.495-6.435,12.541-10.1    c13.658-12.374,23.614-26.288,29.057-40.21h48.728l-8.511,34.354c-1.419,5.729,0.855,11.521,5.795,14.752    c2.319,1.518,4.92,2.271,7.511,2.271c2.929,0,5.845-0.962,8.328-2.869l63.148-48.508h54.532c19.76,0,35.836-16.076,35.836-35.836    V73.126C511.786,53.366,495.71,37.29,475.95,37.29z M301.191,136.734c2.866-0.978,5.581-1.377,7.352-1.539    c2.353,2.089,3.465,5.533,2.847,8.939l-4.234,23.311c-0.618,3.254-1.868,4.027-2.279,4.281c-0.871,0.539-2.155,0.817-3.694,0.833    L301.191,136.734z M109.035,57.962c0-23.689,19.273-42.962,42.962-42.962h108.313c23.689,0,42.963,19.272,42.963,42.962V120.8    c-3.713,0.656-8.334,1.914-12.845,4.32V79.422c0-16.435-13.37-29.805-29.805-29.805h-20.268c-7.026,0-13.891,2.449-19.332,6.896    l-1.986,1.625c-3.625,2.964-8.201,4.596-12.885,4.596c-4.683,0-9.259-1.632-12.883-4.595l-1.989-1.627    c-5.439-4.446-12.304-6.896-19.33-6.896h-20.267c-16.435,0-29.805,13.37-29.805,29.805v45.698    c-4.511-2.406-9.132-3.665-12.845-4.32V57.962z M107.43,171.727c-0.411-0.254-1.66-1.027-2.268-4.221l-4.245-23.37    c-0.618-3.404,0.491-6.844,2.841-8.935c1.77,0.16,4.487,0.554,7.357,1.531l0.01,35.828    C109.587,172.544,108.302,172.266,107.43,171.727z M41.07,491.568c0,1.88,0.256,3.701,0.733,5.432H28.319    c-3.531,0-6.841-1.383-9.322-3.895c-2.481-2.511-3.824-5.838-3.782-9.334l1.707-103.045c1.107-18.009,11.088-33.62,27.742-43.83    l9.157,128.472c0.168,2.358,0.704,4.612,1.548,6.709C47.09,474.688,41.07,482.438,41.07,491.568z M354.727,465.369l9.305-130.545    c18.817,10.097,30.168,26.627,31.353,45.901l1.706,103.013c0.042,3.529-1.301,6.856-3.781,9.367    c-2.481,2.512-5.792,3.895-9.322,3.895h-13.484c0.478-1.73,0.733-3.552,0.733-5.432c0-10.363-7.755-18.947-17.766-20.257    C354.148,469.435,354.58,467.442,354.727,465.369z M356.237,491.568c0,2.995-2.437,5.432-5.431,5.432H61.501    c-2.995,0-5.431-2.437-5.431-5.432c0-2.994,2.437-5.431,5.431-5.431h289.306C353.801,486.138,356.237,488.574,356.237,491.568z     M348.294,311.688c1.407,1.512,2.102,3.478,1.954,5.538l-10.483,147.077c-0.272,3.832-3.496,6.834-7.339,6.834H76.122    c-3.843,0-7.066-3.002-7.34-6.835L58.299,317.227c-0.147-2.061,0.547-4.027,1.955-5.538c1.408-1.512,3.32-2.344,5.385-2.344    h277.271C344.973,309.345,346.887,310.177,348.294,311.688z M246.409,294.345h-80.512c4.103-4.174,6.589-9.886,6.589-16.091    v-3.356c11.827,6.121,23.577,9.556,33.667,9.556c10.09,0,21.84-3.434,33.667-9.556v3.356    C239.82,284.459,242.306,290.171,246.409,294.345z M257.29,244.478c-16.747,15.172-36.819,24.976-51.137,24.976    c-14.317,0-34.39-9.804-51.136-24.976c-18.358-16.632-28.887-35.863-28.887-52.766l-0.013-47.253    c0.097,0.003,0.194,0.004,0.291,0.004c1.356,0,2.725-0.265,4.032-0.811c3.912-1.632,6.439-5.424,6.439-9.659V79.422    c0-8.163,6.641-14.805,14.805-14.805h20.267c3.575,0,7.068,1.246,9.834,3.508l1.99,1.627c6.297,5.147,14.244,7.982,22.377,7.982    s16.081-2.835,22.38-7.983l1.986-1.625c2.768-2.263,6.261-3.509,9.836-3.509h20.268c8.163,0,14.805,6.642,14.805,14.805v54.572    c0,4.235,2.527,8.027,6.439,9.659c1.4,0.585,2.872,0.848,4.322,0.808l-0.012,47.253    C286.177,208.614,275.647,227.846,257.29,244.478z M496.786,179.548c0,11.489-9.347,20.836-20.836,20.836h-57.08    c-1.652,0-3.259,0.546-4.568,1.552l-62.208,47.785l9.918-40.033c0.555-2.239,0.048-4.609-1.374-6.426    c-1.421-1.816-3.6-2.878-5.906-2.878h-54.223c0.442-2.919,0.668-5.813,0.668-8.668l0.001-4.166    c3.776-0.017,7.889-0.775,11.596-3.069c3.314-2.053,7.588-6.188,9.129-14.293l4.245-23.372c1.592-8.765-1.417-17.476-7.875-23.039    V57.962c0-1.913-0.093-3.805-0.276-5.672H475.95c11.489,0,20.836,9.347,20.836,20.836V179.548z" data-original="#000000" class="active-path" data-old_color="#000000" fill="#FFFFFF"/>
		<path d="M206.153,424.368c15.547,0,28.195-12.648,28.195-28.195s-12.648-28.195-28.195-28.195s-28.195,12.648-28.195,28.195    S190.606,424.368,206.153,424.368z M206.153,382.978c7.276,0,13.195,5.919,13.195,13.195s-5.919,13.195-13.195,13.195    s-13.195-5.919-13.195-13.195S198.877,382.978,206.153,382.978z" data-original="#000000" class="active-path" data-old_color="#000000" fill="#FFFFFF"/>
	</g>
</g></g> </svg>
